<svg xmlns="http://www.w3.org/2000/svg" viewBox="0 0 32 32"><g id="singlebed"><path d="M28,18.35V4a1,1,0,0,0-2,0V7.31A22,22,0,0,0,16.23,5a21.42,21.42,0,0,0-3.39.27,1,1,0,1,0,.32,2A19.73,19.73,0,0,1,26,9.59V18H21.93a4.69,4.69,0,0,0-4.63-4H14.7a4.69,4.69,0,0,0-4.63,4H6V9.65A29.68,29.68,0,0,1,9.3,8.37,1,1,0,0,0,10,7.12,1,1,0,0,0,8.7,6.46c-.92.29-1.82.64-2.7,1V4A1,1,0,0,0,4,4V18.35a3.34,3.34,0,0,0-2,3V26a1,1,0,0,0,1,1H4v1a1,1,0,0,0,2,0V27H18.17a1,1,0,0,0,0-2H4V21.35A1.46,1.46,0,0,1,5.55,20h20.9A1.46,1.46,0,0,1,28,21.35V25H22a1,1,0,0,0,0,2h4v1a1,1,0,0,0,2,0V27h1a1,1,0,0,0,1-1V21.35A3.34,3.34,0,0,0,28,18.35ZM12.09,18a2.71,2.71,0,0,1,2.61-2h2.6a2.71,2.71,0,0,1,2.61,2Z"/></g></svg>