<svg xmlns="http://www.w3.org/2000/svg" viewBox="0 0 64 64"><title>Artboard-5</title><g id="Wifi_ROuter" data-name="Wifi ROuter"><path d="M0,54H64V48H0Zm58-4a1,1,0,1,1-1,1A1,1,0,0,1,58,50Zm-4,0a1,1,0,1,1-1,1A1,1,0,0,1,54,50ZM35,50H50a1,1,0,0,1,0,2H35a1,1,0,0,1,0-2Z" style="fill:#1b1b1e"/><path d="M61,43H3a3.0033,3.0033,0,0,0-3,3H64A3.0033,3.0033,0,0,0,61,43Z" style="fill:#1b1b1e"/><path d="M3,59H61a3.0033,3.0033,0,0,0,3-3H0A3.0033,3.0033,0,0,0,3,59Z" style="fill:#1b1b1e"/><path d="M59,39a1.0029,1.0029,0,0,0-1-1H6a1.0029,1.0029,0,0,0-1,1v2H59Z" style="fill:#1b1b1e"/><path d="M51.14,63.51A.99.99,0,0,0,52,64h6a1.0029,1.0029,0,0,0,1-1V61H49.63Z" style="fill:#1b1b1e"/><path d="M5,63a1.0029,1.0029,0,0,0,1,1h6a.99.99,0,0,0,.86-.49L14.37,61H5Z" style="fill:#1b1b1e"/><path d="M18,35a1.0029,1.0029,0,0,0-1-1H10a1.0029,1.0029,0,0,0-1,1v1h9Z" style="fill:#1b1b1e"/><path d="M46,35v1h9V35a1.0029,1.0029,0,0,0-1-1H47A1.0029,1.0029,0,0,0,46,35Z" style="fill:#1b1b1e"/><path d="M29,18.32V36h6V18.32a6.9576,6.9576,0,0,1-6,0Z" style="fill:#1b1b1e"/><circle cx="32" cy="12" r="5" style="fill:#1b1b1e"/><path d="M43,12a10.961,10.961,0,0,1-2.9424,7.4888,1,1,0,0,0,1.4649,1.3623,13.0029,13.0029,0,0,0,0-17.7022,1,1,0,0,0-1.4649,1.3623A10.961,10.961,0,0,1,43,12Z" style="fill:#1b1b1e"/><path d="M47,12a14.93,14.93,0,0,1-4.1055,10.312,1,1,0,1,0,1.4512,1.376,17.0028,17.0028,0,0,0,0-23.376,1,1,0,1,0-1.4512,1.376A14.93,14.93,0,0,1,47,12Z" style="fill:#1b1b1e"/><path d="M39,12a7.0457,7.0457,0,0,1-1.7881,4.6763,1,1,0,1,0,1.4961,1.3271,9.0083,9.0083,0,0,0,0-12.0068,1,1,0,1,0-1.4961,1.3271A7.0457,7.0457,0,0,1,39,12Z" style="fill:#1b1b1e"/><path d="M22.4775,20.8511a1,1,0,0,0,1.4649-1.3623,11.0012,11.0012,0,0,1,0-14.9776,1,1,0,0,0-1.4649-1.3623,13.0029,13.0029,0,0,0,0,17.7022Z" style="fill:#1b1b1e"/><path d="M20.38,24a1,1,0,0,0,.7256-1.688,15.0033,15.0033,0,0,1,0-20.624A1,1,0,1,0,19.6543.312a17.0028,17.0028,0,0,0,0,23.376A.996.996,0,0,0,20.38,24Z" style="fill:#1b1b1e"/><path d="M25.292,18.0034a1,1,0,1,0,1.4961-1.3271,7.0089,7.0089,0,0,1,0-9.3526A1,1,0,1,0,25.292,5.9966a9.0083,9.0083,0,0,0,0,12.0068Z" style="fill:#1b1b1e"/></g></svg>