<?xml version="1.0" encoding="utf-8"?>
<!-- Generator: Adobe Illustrator 21.0.0, SVG Export Plug-In . SVG Version: 6.00 Build 0)  -->
<svg version="1.1" id="Layer_1" xmlns="http://www.w3.org/2000/svg" xmlns:xlink="http://www.w3.org/1999/xlink" x="0px" y="0px"
	 viewBox="0 0 512 512" style="enable-background:new 0 0 512 512;" xml:space="preserve">
<style type="text/css">
	.st0{fill:#71CCE0;}
	.st1{fill:#DFDFDF;}
	.st2{fill:#4A555F;}
	.st3{fill:#FFD452;}
	.st4{fill:#F58E6F;}
	.st5{fill:#FFFFFF;}
	.st6{fill:none;}
</style>
<g>
	<g>
		<g>
			<rect x="189.406" y="34.145" class="st1" width="251.398" height="428.214"/>
		</g>
	</g>
	<g>
		<g>
			<g>
				<path class="st2" d="M70.988,46.824H27.769c-1.865,0-3.377,1.511-3.377,3.377v389.313c0,1.865,1.511,3.377,3.377,3.377h43.218
					c1.865,0,3.377-1.512,3.377-3.377V50.201C74.365,48.335,72.853,46.824,70.988,46.824z M67.611,436.137H31.146V53.578h36.464
					V436.137z"/>
			</g>
		</g>
	</g>
	<g>
		<g>
			<rect x="39.026" y="61.458" class="st4" width="20.705" height="366.799"/>
		</g>
	</g>
	<g>
		<g>
			<rect x="40.2" y="470.221" class="st2" width="18.122" height="6.754"/>
		</g>
	</g>
	<g>
		<g>
			<rect x="45.883" y="50.201" class="st2" width="6.754" height="389.313"/>
		</g>
	</g>
	<g>
		<g>
			<g>
				<path class="st2" d="M458.659,19.512H171.927c-15.962,0-28.947,12.986-28.947,28.947v434.593
					c0,15.961,12.986,28.947,28.947,28.947h286.733c15.963,0,28.948-12.986,28.948-28.947V48.459
					C487.608,32.498,474.622,19.512,458.659,19.512z M480.854,483.053c0,12.237-9.956,22.193-22.194,22.193H171.927
					c-12.237,0-22.193-9.956-22.193-22.193V48.459c0-12.237,9.956-22.193,22.193-22.193h286.733
					c12.238,0,22.194,9.956,22.194,22.193V483.053z"/>
			</g>
		</g>
	</g>
	<g>
		<g>
			<g>
				<path class="st2" d="M230.869,0v26.266h168.849V0H230.869z M392.964,19.512H237.623V6.754h155.341V19.512z"/>
			</g>
		</g>
	</g>
	<g>
		<g>
			<g>
				<path class="st2" d="M228.76,19.512l23.999,47.584h125.066l24.001-47.584H228.76z M373.668,60.343H256.917l-17.186-34.077
					h151.124L373.668,60.343z"/>
			</g>
		</g>
	</g>
	<g>
		<g>
			<g>
				<path class="st2" d="M174.773,19.512v457.48h280.666V19.512H174.773z M448.684,470.238H181.527V26.266h267.158V470.238z"/>
			</g>
		</g>
	</g>
	<g>
		<g>
			<rect x="221.115" y="127.345" class="st3" width="47.552" height="47.552"/>
		</g>
	</g>
	<g>
		<g>
			<rect x="221.115" y="241.493" class="st3" width="47.552" height="47.552"/>
		</g>
	</g>
	<g>
		<g>
			<rect x="221.115" y="355.64" class="st3" width="47.552" height="47.552"/>
		</g>
	</g>
	<g>
		<g>
			<g>
				<path class="st2" d="M217.738,123.968v54.307h54.305v-54.307H217.738z M265.289,171.521h-40.797v-40.799h40.797V171.521z"/>
			</g>
		</g>
	</g>
	<g>
		<g>
			<g>
				<path class="st2" d="M217.738,238.116v54.305h54.305v-54.305H217.738z M265.289,285.667h-40.797V244.87h40.797V285.667z"/>
			</g>
		</g>
	</g>
	<g>
		<g>
			<g>
				<path class="st2" d="M217.738,352.263v54.305h54.305v-54.305H217.738z M265.289,399.814h-40.797v-40.798h40.797V399.814z"/>
			</g>
		</g>
	</g>
	<g>
		<g>
			<polygon class="st2" points="281.437,127.323 248.015,156.117 236.883,142.202 231.609,146.421 247.116,165.806 285.845,132.439 
							"/>
		</g>
	</g>
	<g>
		<g>
			<polygon class="st2" points="281.437,240.517 248.015,269.31 236.883,255.394 231.609,259.613 247.116,278.999 285.845,245.633 
							"/>
		</g>
	</g>
	<g>
		<g>
			<polygon class="st2" points="281.437,353.709 248.015,382.503 236.883,368.588 231.609,372.807 247.116,392.192 285.845,358.825 
							"/>
		</g>
	</g>
	<g>
		<g>
			<rect x="315.293" y="131.011" class="st2" width="99.105" height="6.754"/>
		</g>
	</g>
	<g>
		<g>
			<g>
				<path class="st2" d="M328.801,168.845h6.754v-6.754h-6.754V168.845z M315.293,168.845h6.754v-6.754h-6.754V168.845z
					 M342.309,168.845h6.754v-6.754h-6.754V168.845z M369.325,162.091v6.754h6.444v-6.754H369.325z M355.817,168.845h6.754v-6.754
					h-6.754V168.845z"/>
			</g>
		</g>
	</g>
	<g>
		<g>
			<rect x="315.293" y="249.872" class="st2" width="99.105" height="6.754"/>
		</g>
	</g>
	<g>
		<g>
			<g>
				<path class="st2" d="M328.801,287.707h6.754v-6.754h-6.754V287.707z M315.293,287.707h6.754v-6.754h-6.754V287.707z
					 M342.309,287.707h6.754v-6.754h-6.754V287.707z M369.325,280.953v6.754h6.444v-6.754H369.325z M355.817,287.707h6.754v-6.754
					h-6.754V287.707z"/>
			</g>
		</g>
	</g>
	<g>
		<g>
			<rect x="315.293" y="359.72" class="st2" width="99.105" height="6.754"/>
		</g>
	</g>
	<g>
		<g>
			<g>
				<path class="st2" d="M342.309,397.555h6.754v-6.754h-6.754V397.555z M328.801,397.555h6.754v-6.754h-6.754V397.555z
					 M315.293,397.555h6.754v-6.754h-6.754V397.555z M355.817,397.555h6.754v-6.754h-6.754V397.555z M369.325,390.801v6.754h6.444
					v-6.754H369.325z"/>
			</g>
		</g>
	</g>
	<g>
		<g>
			<g>
				<path class="st2" d="M73.752,437.573c-0.632-0.9-1.664-1.437-2.765-1.437H27.769c-1.1,0-2.133,0.536-2.765,1.437
					c-0.632,0.901-0.785,2.053-0.411,3.089l21.61,59.743c0.484,1.337,1.753,2.229,3.176,2.229c1.422,0,2.692-0.892,3.176-2.229
					l21.609-59.743C74.537,439.627,74.384,438.475,73.752,437.573z M49.379,489.329l-16.797-46.438h33.593L49.379,489.329z"/>
			</g>
		</g>
	</g>
</g>
</svg>
